<?xml version="1.0" encoding="UTF-8"?>
<svg width="209px" height="317px" viewBox="0 0 209 317" version="1.1" xmlns="http://www.w3.org/2000/svg" xmlns:xlink="http://www.w3.org/1999/xlink">
    <!-- Generator: Sketch 52.2 (67145) - http://www.bohemiancoding.com/sketch -->
    <title>BooQs</title>
    <desc>Created with Sketch.</desc>
    <g id="icon&amp;header" stroke="none" stroke-width="1" fill="none" fill-rule="evenodd">
        <g id="home-logo-copy" transform="translate(-218.000000, -156.000000)" fill="#FFFFFF">
            <g id="BooQs" transform="translate(218.000000, 156.000000)">
                <path d="M200.57,34.59 C195.488562,30.9895058 188.978121,30.0727523 183.1,32.13 L183.49,31.99 L56.61,76.4 C50.7721819,76.0968863 45.0262063,74.8192517 39.61,72.62 C37.8747747,71.8893794 36.2729722,70.8755804 34.87,69.62 C34.5645225,69.3473713 34.3016054,69.0305226 34.09,68.68 L34,68.57 C33.2320522,64.2817305 29.1558837,61.4102786 24.859412,62.1309241 C20.5629403,62.8515695 17.6467444,66.8958478 18.32,71.2 C19.0315007,75.051089 20.9843033,78.563324 23.88,81.2 C27.88,84.95 32.88,87.39 38.55,89.2 C44.6205221,91.0633012 50.9053257,92.1387756 57.25,92.4 L58.8,92.47 L188,47.27 L188.41,47.13 C189.423022,46.7766997 190.544448,46.9363023 191.418679,47.5581984 C192.29291,48.1800946 192.811498,49.1871382 192.81,50.26 L192.81,241.76 C192.809777,247.97193 188.871072,253.500571 183,255.53 L54.76,300.41 L54.54,300.52 C53.4425459,300.937353 52.2736283,301.134438 51.1,301.1 C47.2868596,300.89371 43.5505053,299.946034 40.1,298.31 C33.603159,295.377725 27.590872,291.472942 22.27,286.73 C20.2762594,285.002914 18.4574792,283.083648 16.84,281 C16.4944344,280.536923 16.1835868,280.048926 15.91,279.54 C15.91,279.15 15.91,278.69 15.91,278.11 C16,270.95 16.04,248.76 16.04,221.2 C16.04,158.25 15.86,67.6 15.86,67.6 L15.86,64.63 C15.8640409,63.2223105 16.7528101,61.969226 18.08,61.5 L148.64,15.5 C151.319492,14.5550326 153.291311,12.2523547 153.812691,9.45936281 C154.334071,6.66637095 153.325802,3.80738706 151.167691,1.95936271 C149.009579,0.111338371 146.029492,-0.444967555 143.35,0.5 L12.86,46.5 C5.15531229,49.1953382 -0.00296083057,56.4674604 5.68434197e-15,64.63 L5.68434197e-15,67.57 C3.55271368e-15,67.57 3.55271368e-15,73.24 3.55271368e-15,82.72 C3.55271368e-15,111.16 0.14,173.95 0.14,221.15 C0.14,236.88 0.14,250.89 0.14,261.3 C0.14,266.5 0.14,270.82 0.14,273.99 C0.14,275.57 0.14,276.87 0.14,277.85 C0.14,278.83 0.14,279.51 0.14,279.65 L3.55271368e-15,279.65 L3.55271368e-15,280.16 C0.0697820039,282.740634 0.80707684,285.25915 2.14,287.47 C4.31484316,291.091238 7.01033976,294.373006 10.14,297.21 C15.7000729,302.404602 21.9162144,306.849025 28.63,310.43 C35.63,314.12 43.19,316.94 51.05,317 C54.1800798,317.017269 57.2850057,316.440397 60.2,315.3 L188.2,270.5 C200.428643,266.219537 208.614896,254.676159 208.61,241.72 L208.61,50.26 C208.625037,44.0430407 205.628923,38.2036 200.57,34.59 Z" id="Path"></path>
                <path d="M44.7,65.88 C45.4356884,67.9453716 47.6968948,69.0336051 49.77,68.32 L165.47,27.81 C166.982989,27.4820837 168.17091,26.3105587 168.519821,24.8022732 C168.868732,23.2939877 168.315977,21.7197929 167.1007,20.7607482 C165.885424,19.8017035 164.225859,19.6300298 162.84,20.32 L47.14,60.82 C45.0798713,61.5557041 43.9928734,63.8098882 44.7,65.88 Z" id="Path"></path>
                <path d="M170.28,210.29 L153.07,213.29 L145.97,206.75 C138.814135,213.035454 130.069435,217.234847 120.69,218.89 C108.69,220.97 98.0233333,218.43 88.69,211.27 C78.5366667,203.323333 73.4633333,191.81 73.47,176.73 C73.3257714,162.340381 78.4553288,148.395953 87.89,137.53 C97.2233333,126.55 108.256667,120.083333 120.99,118.13 C131.93306,116.214008 143.17811,118.974486 151.99,125.74 C162.95,133.926667 168.416667,145.976667 168.39,161.89 C168.39,174.356667 164.056667,186.17 155.39,197.33 L170.28,210.29 Z M132.67,176.7 L145.82,188.49 C151.550141,181.313273 154.636239,172.383361 154.56,163.2 C154.56,152.82 151.336667,144.643333 144.89,138.67 C138.443333,132.696667 130.406667,130.45 120.78,131.93 C111.1985,133.368978 102.572922,138.533543 96.78,146.3 C90.4564767,154.356934 87.1079011,164.349677 87.3,174.59 C87.3,185.136667 90.55,193.22 97.05,198.84 C103.367599,204.471844 111.948806,206.838054 120.26,205.24 C126.098374,204.256905 131.598405,201.830016 136.26,198.18 L115,179.63 L132.67,176.7 Z" id="Shape" fill-rule="nonzero"></path>
            </g>
        </g>
    </g>
</svg>