<?xml version="1.0" standalone="no"?>
<!DOCTYPE svg PUBLIC "-//W3C//DTD SVG 20010904//EN"
 "http://www.w3.org/TR/2001/REC-SVG-20010904/DTD/svg10.dtd">
<svg version="1.0" xmlns="http://www.w3.org/2000/svg"
 width="700.000000pt" height="700.000000pt" viewBox="0 0 700.000000 700.000000"
 preserveAspectRatio="xMidYMid meet">
<metadata>
Created by potrace 1.11, written by Peter Selinger 2001-2013
</metadata>
<g transform="translate(0.000000,700.000000) scale(0.100000,-0.100000)"
fill="#000000" stroke="none">
<path d="M0 3500 l0 -3500 3500 0 3500 0 0 3500 0 3500 -3500 0 -3500 0 0
-3500z m4267 2486 c27 -29 33 -44 33 -78 0 -56 -27 -99 -76 -121 -21 -9 -504
-181 -1073 -382 -569 -201 -1038 -370 -1043 -377 -4 -7 -8 -794 -8 -1748 l0
-1735 88 -85 c132 -127 298 -219 432 -241 l59 -9 1038 364 c571 200 1050 369
1064 374 42 17 101 73 120 117 18 38 19 113 19 1612 0 1416 -2 1573 -16 1587
-8 9 -21 16 -28 16 -7 0 -482 -164 -1056 -366 l-1043 -365 -93 11 c-263 32
-456 126 -519 254 -50 101 -22 191 66 218 62 18 124 -17 154 -89 10 -25 29
-39 87 -66 70 -34 196 -67 254 -67 15 0 485 160 1043 356 1104 388 1094 385
1199 350 68 -23 144 -92 179 -164 l28 -57 0 -1610 0 -1610 -23 -64 c-44 -121
-123 -216 -229 -274 -49 -26 -2086 -745 -2178 -768 -195 -49 -541 103 -763
336 -42 44 -89 103 -103 130 l-27 50 -3 1780 c-3 1424 -1 1788 9 1822 15 49
62 114 113 155 28 23 295 121 1105 409 1191 422 1128 404 1191 335z m246 -288
c26 -21 31 -61 10 -86 -13 -15 -279 -113 -948 -347 -511 -179 -943 -326 -959
-327 -34 -1 -56 23 -56 63 0 14 7 33 16 40 21 18 1861 667 1895 668 14 1 33
-5 42 -11z m-429 -1582 c123 -42 239 -126 326 -238 37 -47 88 -170 104 -250
20 -97 21 -265 1 -357 -22 -107 -69 -218 -130 -311 -30 -46 -55 -85 -55 -86 0
-2 52 -49 116 -106 l117 -102 -138 -24 -137 -24 -41 39 c-73 68 -68 67 -128
22 -194 -145 -474 -198 -676 -127 -135 48 -266 154 -334 273 -16 27 -41 86
-56 130 -25 73 -27 93 -27 245 -1 184 15 264 80 407 98 216 314 422 520 494
158 56 319 61 458 15z"/>
<path d="M3772 3919 c-208 -35 -376 -171 -472 -383 -57 -124 -75 -300 -46
-437 48 -223 238 -371 456 -356 41 3 103 14 138 26 64 22 162 77 162 91 0 6
-273 251 -319 287 -2 2 -2 5 0 7 5 5 238 46 262 46 8 0 61 -41 117 -92 l102
-92 19 25 c32 40 86 160 103 225 20 78 20 220 1 303 -42 178 -174 311 -342
346 -75 16 -103 17 -181 4z"/>
</g>
</svg>
